<svg xmlns="http://www.w3.org/2000/svg" xmlns:svg="http://www.w3.org/2000/svg" id="svg7969" width="100" height="100" x="0" y="0" enable-background="new 0 0 1000 1000" version="1.1" viewBox="0 0 100 100" xml:space="preserve"><metadata id="metadata7909">Svg Vector Icons : http://www.onlinewebfonts.com/icon</metadata><g id="g7967" transform="matrix(0.09449231,0,0,0.09562584,1.8345033,-5.141558)" style="fill:#fff;fill-opacity:1;stroke:#000;stroke-width:1.29325914;stroke-miterlimit:4;stroke-dasharray:none;stroke-opacity:1"><g id="g7935" transform="matrix(1.0320688,0,0,1.0069081,-28.955821,-17.934987)" style="fill:#fff;fill-opacity:1;stroke:#000;stroke-width:1.29325914;stroke-miterlimit:4;stroke-dasharray:none;stroke-opacity:1"><g id="g7927" style="fill:#fff;fill-opacity:1;stroke:#000;stroke-width:1.29325914;stroke-miterlimit:4;stroke-dasharray:none;stroke-opacity:1"><g id="g7925" style="fill:#fff;fill-opacity:1;stroke:#000;stroke-width:1.29325914;stroke-miterlimit:4;stroke-dasharray:none;stroke-opacity:1"><rect id="rect7911" width="524.872" height="105.776" x="239.544" y="404.812" style="fill:#fff;fill-opacity:1;stroke:#000;stroke-width:1.79973924;stroke-miterlimit:4;stroke-dasharray:none;stroke-opacity:1"/><rect id="rect7915" width="524.872" height="105.776" x="239.544" y="193.121" style="fill:#fff;fill-opacity:1;stroke:#000;stroke-width:1.79973924;stroke-miterlimit:4;stroke-dasharray:none;stroke-opacity:1"/><polygon id="polygon7917" points="350.8 691.2 619.5 691.2 695.6 615.4 350.8 615.4" transform="matrix(1.3859846,0,0,1.3973,-246.65938,-243.53477)" style="fill:#fff;fill-opacity:1;stroke:#000;stroke-width:1.29325914;stroke-miterlimit:4;stroke-dasharray:none;stroke-opacity:1"/><rect id="rect7919" width="104.919" height="105.776" x="29.567" y="404.812" style="fill:#fff;fill-opacity:1;stroke:#000;stroke-width:1.79973924;stroke-miterlimit:4;stroke-dasharray:none;stroke-opacity:1"/><rect id="rect7921" width="104.919" height="105.776" x="29.567" y="193.121" style="fill:#fff;fill-opacity:1;stroke:#000;stroke-width:1.79973924;stroke-miterlimit:4;stroke-dasharray:none;stroke-opacity:1"/><rect id="rect7923" width="104.919" height="105.776" x="29.567" y="616.364" style="fill:#fff;fill-opacity:1;stroke:#000;stroke-width:1.79973924;stroke-miterlimit:4;stroke-dasharray:none;stroke-opacity:1"/></g></g><g id="g7933" style="fill:#fff;fill-opacity:1;stroke:#000;stroke-width:1.29325914;stroke-miterlimit:4;stroke-dasharray:none;stroke-opacity:1"><path id="path7929" d="M 978,612.9 920.6,555.3 C 904.8,539.4 879.2,539.2 863.5,555 L 817.3,601.5 932,716.7 978.2,670.2 C 994,654.5 993.9,628.8 978,612.9 Z" style="fill:#fff;fill-opacity:1;stroke:#000;stroke-width:1.29325914;stroke-miterlimit:4;stroke-dasharray:none;stroke-opacity:1"/><path id="path7931" d="m 591.1,823.8 c -2.5,2.1 -4.7,4.7 -5.7,8.1 l -40,136.9 c -1.8,5.9 -0.1,12.4 4.2,16.8 3.3,3.2 7.6,5 12,5 1.6,0 3.2,-0.2 4.8,-0.7 l 136.4,-40.2 c 3.2,-0.9 5.6,-2.9 7.7,-5.2 L 897.5,758.4 777.7,637.9 Z m 18.1,118 -16,-16.1 22.7,-77.5 58,12 11.5,59.1 z" style="fill:#fff;fill-opacity:1;stroke:#000;stroke-width:1.29325914;stroke-miterlimit:4;stroke-dasharray:none;stroke-opacity:1"/></g></g></g></svg>