<svg xmlns="http://www.w3.org/2000/svg" xmlns:svg="http://www.w3.org/2000/svg" id="svg5275" width="100" height="100" x="0" y="0" enable-background="new 0 0 100 100" version="1.1" viewBox="0 0 100 100" xml:space="preserve"><metadata id="metadata5281"/><switch id="switch5269" transform="translate(0.56179035,1.0296193)" style="fill:#fff;fill-opacity:1"><g id="g5267" style="fill:#fff;fill-opacity:1"><path id="path5263" d="m 41.8,86.5 c 0,-5 3.2,-8.7 7.6,-8.7 4.6,0 7.6,3.6 7.6,8.7 0,4.9 -3,8.7 -7.6,8.7 -4.5,-0.1 -7.6,-3.8 -7.6,-8.7 z" style="fill:#fff;fill-opacity:1"/><polygon id="polygon5265" points="54.2 71.4 45.4 71.4 43.6 4.2 56 4.2" style="fill:#fff;fill-opacity:1"/></g></switch><path style="fill:#fff;fill-opacity:1;stroke:#000;stroke-width:.18726344;stroke-opacity:1" id="path7852" d="M 45.966994,70.709255 C 45.966759,69.859547 45.587742,55.133617 45.124735,37.984967 44.661728,20.836316 44.282712,6.4895955 44.282477,6.1033647 l -4.27e-4,-0.702238 h 6.086062 6.086062 l -0.0016,0.5149745 C 56.451758,6.1993372 56.073065,20.419655 55.611073,37.516808 55.149082,54.613961 54.770576,69.424159 54.76995,70.428359 l -0.0011,1.825819 h -4.400691 -4.400691 l -4.31e-4,-1.544923 z"/><path style="fill:#fff;fill-opacity:1;stroke:#000;stroke-width:.18726344;stroke-opacity:1" id="path7854" d="m 48.818739,96.008283 c -1.896211,-0.30166 -4.038904,-1.770869 -5.017205,-3.440213 -2.652854,-4.526753 -1.160161,-10.843152 3.052457,-12.916614 1.283964,-0.631971 3.436058,-0.837631 5.030754,-0.480754 2.104579,0.470984 4.03817,2.297956 4.972256,4.698083 0.490795,1.261097 0.6863,4.484022 0.36335,5.989886 -0.354292,1.652006 -1.267935,3.273092 -2.474063,4.389754 -1.640324,1.518651 -3.665068,2.119787 -5.927549,1.759858 z"/></svg>