<svg xmlns="http://www.w3.org/2000/svg" xmlns:svg="http://www.w3.org/2000/svg" id="svg4667" width="100" height="100" x="0" y="0" version="1.1" viewBox="0 0 100 100" xml:space="preserve"><metadata id="metadata4673"/><path style="fill:#fff;fill-opacity:1;stroke:#000;stroke-width:.11125069;stroke-miterlimit:4;stroke-dasharray:none;stroke-opacity:1" id="path822" d="M 47.212089,74.011179 C 45.064877,73.71049 43.01428,72.206913 42.044767,70.222304 41.644402,69.402746 41.586115,68.94663 41.612963,66.843257 c 0.09202,-7.209018 3.882949,-14.603017 9.793136,-19.100977 0.873613,-0.664865 2.72546,-1.876303 4.115214,-2.69209 3.767181,-2.211331 5.652441,-4.238468 6.853797,-7.369581 2.390097,-6.229351 -0.405772,-13.50943 -6.492024,-16.904381 -2.699637,-1.505875 -6.320203,-2.221727 -9.383387,-1.855266 -3.866929,0.462617 -6.224334,1.535797 -8.893001,4.048425 -2.825598,2.660384 -3.918579,4.968025 -4.259046,8.992235 -0.281852,3.3314 -1.377948,5.103263 -3.928204,6.350023 -0.930972,0.455132 -1.403153,0.548075 -2.830867,0.557225 -1.454418,0.0093 -1.896861,-0.07419 -2.92596,-0.552297 -1.340017,-0.622548 -2.480094,-1.696671 -3.210035,-3.024334 -1.044423,-1.899659 -0.689092,-6.886894 0.788265,-11.063687 3.295951,-9.31833 11.632258,-16.1142754 21.947504,-17.8920958 2.343753,-0.4039434 7.999049,-0.359575 10.320179,0.080972 15.737885,2.9869913 25.81065,17.1264158 22.654351,31.8005578 -1.635193,7.602273 -6.455132,13.750298 -14.101569,17.987111 -2.477044,1.372505 -4.348563,3.199796 -5.444677,5.316013 -0.95387,1.84159 -1.357319,3.339864 -1.603139,5.953497 -0.221491,2.354947 -0.72786,3.561073 -2.000526,4.765068 -1.496312,1.415575 -3.648723,2.072891 -5.800885,1.771508 z"/><path style="fill:#fff;fill-opacity:1;stroke:#000;stroke-width:.11125069;stroke-miterlimit:4;stroke-dasharray:none;stroke-opacity:1" id="path824" d="m 46.525162,95.494942 c -2.408194,-0.78349 -4.197287,-2.328973 -5.342016,-4.61463 -0.620687,-1.239313 -0.672174,-1.505092 -0.672174,-3.469767 0,-1.967069 0.05054,-2.227059 0.669503,-3.444768 1.241345,-2.442102 3.053767,-3.928694 5.725926,-4.696543 5.492032,-1.578143 11.145965,2.197038 11.448166,7.644043 0.144727,2.608621 -0.544219,4.419434 -2.416485,6.351445 -2.339727,2.41439 -6.104869,3.306471 -9.41292,2.23022 z"/></svg>