<svg xmlns="http://www.w3.org/2000/svg" xmlns:svg="http://www.w3.org/2000/svg" id="svg909" width="24" height="24" version="1.1" viewBox="0 0 24 24"><metadata id="metadata915"/><path id="path905" fill="none" d="M0 0h24v24H0V0z"/><path id="path907" d="M 19.499999,8.166667 H 18.25 V 5.976191 C 18.25,2.953333 15.45,0.5 11.999999,0.5 8.55,0.5 5.7500001,2.953333 5.7500001,5.976191 h 2.5 c 0,-1.818096 1.6750002,-3.285715 3.7499989,-3.285715 2.075001,0 3.750001,1.467619 3.750001,3.285715 V 8.166667 H 4.5 c -1.375,0 -2.5,0.985714 -2.5,2.190476 V 21.309525 C 2,22.514287 3.125,23.5 4.5,23.5 H 19.499999 C 20.875,23.5 22,22.514287 22,21.309525 V 10.357143 C 22,9.152381 20.875,8.166667 19.499999,8.166667 Z m 0,13.142858 H 4.5 V 10.357143 h 14.999999 z m -7.5,-3.285715 c 1.375001,0 2.5,-0.985714 2.5,-2.190475 0,-1.204762 -1.124999,-2.190477 -2.5,-2.190477 C 10.625,13.642858 9.5,14.628573 9.5,15.833335 c 0,1.204761 1.125,2.190475 2.499999,2.190475 z" style="stroke-width:1.17006314"/></svg>