<svg xmlns="http://www.w3.org/2000/svg" xmlns:svg="http://www.w3.org/2000/svg" id="svg48" width="100" height="100" x="0" y="0" enable-background="new 0 0 1000 1000" version="1.1" viewBox="0 0 100 100" xml:space="preserve"><metadata id="metadata2">Svg Vector Icons : http://www.onlinewebfonts.com/icon</metadata><g id="g46" transform="matrix(0.09419744,0,0,0.09162271,3.0533995,3.7956373)" style="fill:#fff;fill-opacity:1;stroke:#000;stroke-width:1.07641292;stroke-miterlimit:4;stroke-dasharray:none;stroke-opacity:1"><g id="g14" style="fill:#fff;fill-opacity:1;stroke:#000;stroke-width:1.07641292;stroke-miterlimit:4;stroke-dasharray:none;stroke-opacity:1"><path id="path4" d="m 747.2,107.9 c -15.7,-9.1 -35.9,-3.7 -45,12.1 l -32.9,57 114,65.8 32.9,-57 c 9.1,-15.8 3.7,-35.9 -12.1,-45 z" style="fill:#fff;fill-opacity:1;stroke:#000;stroke-width:1.07641292;stroke-miterlimit:4;stroke-dasharray:none;stroke-opacity:1"/><path id="path6" d="m 248.9,107.9 -57,32.9 c -15.7,9.1 -21.1,29.2 -12.1,45 l 32.9,57 114,-65.8 -32.9,-57 c -9,-15.8 -29.2,-21.2 -44.9,-12.1 z" style="fill:#fff;fill-opacity:1;stroke:#000;stroke-width:1.07641292;stroke-miterlimit:4;stroke-dasharray:none;stroke-opacity:1"/><path id="path8" d="m 500,158.2 c 20.8,0 41.2,2 61.3,4.9 v -53.3 l 42.1,-0.3 V 40.6 C 603.4,23.7 589.7,10 572.8,10 H 427.6 C 410.7,10 397,23.7 397,40.6 v 68.9 l 41.8,0.3 v 53.3 c 20,-2.8 40.4,-4.9 61.2,-4.9 z" style="fill:#fff;fill-opacity:1;stroke:#000;stroke-width:1.07641292;stroke-miterlimit:4;stroke-dasharray:none;stroke-opacity:1"/><path id="path10" d="m 500,335.9 c -141.4,0 -256,114.6 -256,256 0,141.4 114.6,256 256,256 141.4,0 256,-114.6 256,-256 0,-141.4 -114.6,-256 -256,-256 z m 36.8,302.9 C 522,652.3 492.4,644 470.7,620.2 449,596.4 443.4,566.2 458.2,552.7 473,539.2 605.5,466.1 646,460.3 636.5,500 551.6,625.3 536.8,638.8 Z" style="fill:#fff;fill-opacity:1;stroke:#000;stroke-width:1.07641292;stroke-miterlimit:4;stroke-dasharray:none;stroke-opacity:1"/><path id="path12" d="M 500,193.8 C 280.1,193.8 101.9,372 101.9,591.9 101.9,811.8 280.1,990 500,990 719.9,990 898.1,811.8 898.1,591.9 898.1,372 719.9,193.8 500,193.8 Z m 0,721.1 c -178.4,0 -323,-144.6 -323,-323 0,-178.4 144.6,-323 323,-323 178.4,0 323,144.6 323,323 0,178.4 -144.6,323 -323,323 z" style="fill:#fff;fill-opacity:1;stroke:#000;stroke-width:1.07641292;stroke-miterlimit:4;stroke-dasharray:none;stroke-opacity:1"/></g></g></svg>